<?xml version="1.0" standalone="no"?><!DOCTYPE svg PUBLIC "-//W3C//DTD SVG 1.1//EN" "http://www.w3.org/Graphics/SVG/1.1/DTD/svg11.dtd"><svg t="1591106070379" class="icon" viewBox="0 0 1024 1024" version="1.1" xmlns="http://www.w3.org/2000/svg" p-id="1834" xmlns:xlink="http://www.w3.org/1999/xlink" width="200" height="200"><defs><style type="text/css"></style></defs><path d="M985.696558 759.062344a37.027431 37.027431 0 0 0 0-73.416459h-84.269327l113.63591-151.301745a36.389027 36.389027 0 0 0-56.817955-43.411472l-127.680798 171.09227-127.680798-171.09227a36.389027 36.389027 0 0 0-51.072319-7.660848 37.027431 37.027431 0 0 0-7.660848 51.07232l113.63591 151.301745h-88.09975a37.027431 37.027431 0 0 0 0 73.416459h121.296758V829.925187h-121.296758a37.027431 37.027431 0 0 0-36.389028 36.389027 36.389027 36.389027 0 0 0 36.389028 36.389028h121.296758v85.546135a37.027431 37.027431 0 0 0 73.416459 0v-86.822943h121.296758a37.027431 37.027431 0 0 0 0-73.416459h-121.296758v-68.947631z m-326.862843-539.451371a35.750623 35.750623 0 0 0-35.750624-37.027432H185.137954a37.027431 37.027431 0 0 0 0 72.778055h437.306733a36.389027 36.389027 0 0 0 36.389028-36.389027zM584.778852 438.583541a35.750623 35.750623 0 0 0-36.389028-36.389027H185.137954a35.750623 35.750623 0 0 0-36.389027 36.389027 36.389027 36.389027 0 0 0 36.389027 36.389028h363.25187a36.389027 36.389027 0 0 0 36.389028-36.389028zM185.137954 621.167082a36.389027 36.389027 0 1 0 0 72.778055h218.972569a36.389027 36.389027 0 0 0 0-72.778055z" fill="#6B6B6B" p-id="1835"></path><path d="M549.028228 876.528678H109.806283a36.389027 36.389027 0 0 1-36.389027-36.389027V109.805486a36.389027 36.389027 0 0 1 36.389027-36.389027h586.054863a35.750623 35.750623 0 0 1 36.389028 36.389027V402.194514a37.027431 37.027431 0 0 0 36.389027 36.389027 36.389027 36.389027 0 0 0 36.389027-36.389027V73.416459A73.416459 73.416459 0 0 0 732.250174 0H73.417256A73.416459 73.416459 0 0 0 0.639201 73.416459v803.112219a73.416459 73.416459 0 0 0 72.778055 73.416459h475.610972a37.027431 37.027431 0 0 0 36.389028-37.027431 37.027431 37.027431 0 0 0-36.389028-36.389028z" fill="#6B6B6B" p-id="1836"></path></svg>